PathFileType	4	(X/Y/Z)	/Users/itak/Documents/Research/Walk-IL/dataset/trc/00182_00008.trc
DataRate	CameraRate	NumFrames	NumMarkers	Units	OrigDataRate	OrigDataStartFrame	OrigNumFrames
100.000000	100.000000	4	53	mm	100.000000	597	796
Frame#	Time	RPSI			LPSI			L3			STRN			T10			C7			CLAV			RBAK			LBAK			LSHO			LUPA			LAEL			LAOL			LWTS			LWPS			LFRA			LIFD			LHPS			LHTS			RSHO			RUPA			RAEL			RAOL			RWTS			RWPS			RFRA			RIFD			RHTS			RHPS			RBHD			LFHD			RFHD			LBHD			LHIP			RHIP			RASI			LASI			LKNE			LTHI			LANK			LTIP			LTOE			LMT1			LMT5			LHEE			RKNE			RTHI			RANK			RTIP			RTOE			RMT1			RMT5			RHEE			
		X1	Y1	Z1	X2	Y2	Z2	X3	Y3	Z3	X4	Y4	Z4	X5	Y5	Z5	X6	Y6	Z6	X7	Y7	Z7	X8	Y8	Z8	X9	Y9	Z9	X10	Y10	Z10	X11	Y11	Z11	X12	Y12	Z12	X13	Y13	Z13	X14	Y14	Z14	X15	Y15	Z15	X16	Y16	Z16	X17	Y17	Z17	X18	Y18	Z18	X19	Y19	Z19	X20	Y20	Z20	X21	Y21	Z21	X22	Y22	Z22	X23	Y23	Z23	X24	Y24	Z24	X25	Y25	Z25	X26	Y26	Z26	X27	Y27	Z27	X28	Y28	Z28	X29	Y29	Z29	X30	Y30	Z30	X31	Y31	Z31	X32	Y32	Z32	X33	Y33	Z33	X34	Y34	Z34	X35	Y35	Z35	X36	Y36	Z36	X37	Y37	Z37	X38	Y38	Z38	X39	Y39	Z39	X40	Y40	Z40	X41	Y41	Z41	X42	Y42	Z42	X43	Y43	Z43	X44	Y44	Z44	X45	Y45	Z45	X46	Y46	Z46	X47	Y47	Z47	X48	Y48	Z48	X49	Y49	Z49	X50	Y50	Z50	X51	Y51	Z51	X52	Y52	Z52	X53	Y53	Z53	

598	5.97	-923.6675415039062	1016.960876464844	128.6576385498047	-807.3502197265625	1018.937866210938	85.48008728027344	-864.7122192382812	1053.05078125	106.9932556152344	-782.0755004882812	1265.256591796875	356.953125	-855.3429565429688	1209.147705078125	67.05019378662109	-814.3186645507812	1478.778442382812	122.2494888305664	-777.7833862304688	1378.307250976562	324.7672119140625	-942.0718994140625	1306.23486328125	84.96360015869141	-719.6792602539062	1449.472412109375	93.6600341796875	-627.3154907226562	1435.820678710938	151.8273010253906	-568.7536010742188	1298.172973632812	108.535285949707	-564.6512451171875	1079.31787109375	136.7173309326172	-645.803955078125	1065.605102539062	102.331413269043	-593.5244750976562	861.7134399414062	274.0959777832031	-564.4125366210938	830.8974609375	190.7245483398438	-555.8111572265625	969.2127685546875	158.5311889648438	-625.436767578125	679.52880859375	305.7326049804688	-570.0072631835938	764.0187377929688	218.6855773925781	-577.3679809570312	781.8057861328125	289.1629333496094	-976.6762084960938	1465.255981445312	222.9239807128906	-1049.477905273438	1404.98779296875	213.5087280273438	-1133.8642578125	1130.541381835938	180.7088165283203	-1037.656860351562	1110.896240234375	168.8008422851562	-1137.192504882812	891.40869140625	301.6585388183594	-1186.306640625	886.3457641601562	226.4234008789062	-1158.781494140625	1058.980590820312	202.1844482421875	-1126.782104492188	701.2495727539062	293.4173278808594	-1152.738525390625	795.649658203125	318.0920104980469	-1190.006958007812	800.9754638671875	246.9395904541016	-869.4443359375	1648.869140625	196.5517120361328	-681.9951782226562	1687.8857421875	297.2958679199219	-800.2545166015625	1703.1650390625	347.6230163574219	-747.6299438476562	1639.67333984375	136.1050872802734	-663.5922241210938	958.2986450195312	144.6390533447266	-991.0848999023438	976.2258911132812	315.390625	-923.5897827148438	1018.009704589844	384.6840515136719	-670.484619140625	993.1301879882812	284.8164978027344	-759.8754272460938	468.7080383300781	127.0276947021484	-708.2009887695312	608.4281616210938	142.3670349121094	-861.764892578125	57.35110855102539	-87.51995086669922	-802.1624755859375	262.5783386230469	23.51221466064453	-903.3865966796875	38.54287338256836	125.1640167236328	-945.505615234375	40.81350708007812	72.24734497070312	-828.076171875	36.57923126220703	21.64720916748047	-926.6586303710938	77.59583282470703	-141.2906494140625	-911.8021240234375	531.6204223632812	510.0638122558594	-961.4305419921875	778.9893188476562	430.8459167480469	-881.5215454101562	38.14165878295898	679.4533081054688	-882.5013427734375	426.7806396484375	564.9542236328125	-753.8555908203125	153.7395477294922	800.842041015625	-742.9899291992188	132.3735961914062	734.90283203125	-850.8815307617188	85.17839050292969	771.80615234375	-868.009765625	28.83852005004883	590.954345703125	
599	5.98	-924.3823852539062	1017.38330078125	141.3341217041016	-808.398681640625	1019.099975585938	96.60267639160156	-865.4114990234375	1052.864990234375	118.7602386474609	-779.9183349609375	1265.557373046875	366.9952087402344	-856.8941040039062	1208.48583984375	78.23030090332031	-815.41162109375	1478.489501953125	131.8837585449219	-776.1210327148438	1378.497802734375	334.3566284179688	-943.3373413085938	1305.516967773438	96.90326690673828	-721.10107421875	1449.004150390625	102.2566223144531	-628.0225830078125	1435.616577148438	159.18701171875	-569.9453735351562	1298.007202148438	114.9277877807617	-565.7042236328125	1079.321411132812	141.6775817871094	-647.7882080078125	1065.929077148438	109.0533905029297	-591.0720825195312	858.4057006835938	274.6816711425781	-563.8993530273438	830.0127563476562	189.8273773193359	-556.2389526367188	968.9535522460938	161.0373382568359	-621.8536376953125	674.9655151367188	301.3759155273438	-568.537353515625	762.4440307617188	215.8211212158203	-574.510009765625	778.017333984375	287.0411682128906	-976.3909912109375	1465.042602539062	234.6547088623047	-1049.293579101562	1404.837524414062	226.1915435791016	-1133.470825195312	1130.25927734375	193.9655914306641	-1037.322875976562	1110.840698242188	181.1257781982422	-1135.28125	890.6561279296875	314.2245178222656	-1185.132690429688	885.8486328125	239.5278625488281	-1158.057983398438	1058.621215820312	215.5342864990234	-1124.4375	700.5457153320312	304.8916320800781	-1150.391723632812	794.7791137695312	330.3853149414062	-1188.425048828125	800.3650512695312	259.6940612792969	-869.46240234375	1648.64453125	206.2112731933594	-681.0525512695312	1688.039794921875	305.0917053222656	-798.9158935546875	1703.394897460938	356.4698486328125	-748.1842651367188	1639.3408203125	144.6417694091797	-663.587890625	958.5390014648438	153.11083984375	-989.2059936523438	976.0154418945312	329.2920837402344	-920.6622314453125	1017.857421875	397.0948181152344	-668.6804809570312	993.2527465820312	293.7325439453125	-757.884033203125	469.2882080078125	132.9676208496094	-706.9306640625	608.984130859375	149.0104217529297	-861.6170654296875	59.88240432739258	-86.57970428466797	-801.1297607421875	264.5387573242188	26.61811256408691	-903.2511596679688	38.56813430786133	125.1274719238281	-944.943359375	41.23598861694336	72.74526977539062	-827.8651733398438	36.62089538574219	21.99174690246582	-926.5850219726562	82.24657440185547	-139.6897125244141	-905.1314697265625	530.0986938476562	520.6063842773438	-955.963623046875	778.2977294921875	444.0177612304688	-875.8115844726562	36.44623565673828	684.7671508789062	-875.1572875976562	424.597900390625	573.9939575195312	-743.4009399414062	150.0111846923828	804.2182006835938	-733.8410034179688	128.5904693603516	738.1566772460938	-841.4609375	82.23033142089844	777.2626953125	-863.1272583007812	26.53791236877441	596.5797119140625	
600	5.99	-924.9306030273438	1017.855773925781	154.2882843017578	-809.3203125	1019.362548828125	108.0402984619141	-865.9605712890625	1052.788818359375	130.8403472900391	-777.676025390625	1266.030639648438	377.21435546875	-858.3378295898438	1207.866943359375	89.68601226806641	-816.5474243164062	1478.284912109375	141.6400451660156	-774.429931640625	1378.84765625	344.0709533691406	-944.5548706054688	1304.833374023438	109.0553894042969	-722.5559692382812	1448.62255859375	110.9835433959961	-628.7713623046875	1435.549438476562	166.6644744873047	-571.1366577148438	1298.017333984375	121.4396362304688	-566.6723022460938	1079.51513671875	146.6863403320312	-649.6997680664062	1066.39404296875	115.927848815918	-588.46142578125	855.4754638671875	275.3329162597656	-563.437255859375	829.4573364257812	189.0815582275391	-556.6406860351562	968.9742431640625	163.6680908203125	-618.2171630859375	670.9518432617188	297.1912231445312	-567.092529296875	761.2792358398438	213.1084747314453	-571.54638671875	774.6771240234375	284.9927368164062	-976.0704345703125	1464.922485351562	246.5050506591797	-1049.052368164062	1404.790405273438	239.0247955322266	-1133.0234375	1130.076904296875	207.4537048339844	-1036.958129882812	1110.890502929688	193.6515502929688	-1133.275268554688	890.0510864257812	327.0791931152344	-1183.88427734375	885.4608764648438	252.9549255371094	-1157.273315429688	1058.366333007812	229.138916015625	-1121.946166992188	699.97119140625	316.6657104492188	-1147.907958984375	794.05322265625	342.9710998535156	-1186.753662109375	799.8648071289062	272.7830810546875	-869.492919921875	1648.543579101562	215.9915924072266	-680.106201171875	1688.315185546875	312.9452209472656	-797.54736328125	1703.74560546875	365.4026489257812	-748.759521484375	1639.118408203125	153.2694854736328	-663.6934204101562	958.8265991210938	162.0039367675781	-986.9830322265625	975.7890014648438	343.1864318847656	-916.728759765625	1017.136840820312	408.6370849609375	-666.7928466796875	993.494140625	302.8776550292969	-755.7559204101562	469.9508666992188	139.1920776367188	-705.5739135742188	609.6395874023438	155.9216156005859	-861.533203125	62.65389251708984	-85.48139190673828	-799.9947509765625	266.6876525878906	29.96551704406738	-903.1016845703125	38.59719848632812	125.1127090454102	-944.3762817382812	41.67177581787109	73.3333740234375	-827.674072265625	36.7152099609375	22.37458610534668	-926.5708618164062	87.24538421630859	-137.7815399169922	-898.438720703125	528.4833374023438	530.9305419921875	-950.4290161132812	777.5889282226562	457.3008728027344	-871.3360595703125	35.16274261474609	688.7892456054688	-867.7302856445312	422.3081970214844	582.66650390625	-733.001220703125	145.438720703125	806.7918090820312	-724.9614868164062	124.0528869628906	740.5693969726562	-832.3312377929688	78.77010345458984	781.955810546875	-858.9944458007812	24.55593681335449	601.369873046875	
601	6	-925.29248046875	1018.325561523438	167.4918365478516	-810.1087646484375	1019.717407226562	119.7686004638672	-866.3764038085938	1052.822021484375	143.2116241455078	-775.3460693359375	1266.663452148438	387.6055603027344	-859.6832885742188	1207.28466796875	101.4042663574219	-817.7159423828125	1478.136474609375	151.5381927490234	-772.7113647460938	1379.340209960938	353.91015625	-945.72216796875	1304.179931640625	121.4140777587891	-724.0467529296875	1448.31982421875	119.841178894043	-629.5628662109375	1435.598266601562	174.2558746337891	-572.3401489257812	1298.183471679688	128.0541687011719	-567.5471801757812	1079.869018554688	151.7268218994141	-651.5072021484375	1066.966430664062	122.9200744628906	-585.7283325195312	852.9334716796875	276.0828552246094	-563.02001953125	829.207275390625	188.5451049804688	-557.0053100585938	969.245849609375	166.4284820556641	-614.5824584960938	667.5083618164062	293.2967224121094	-565.6807250976562	760.5028076171875	210.6435546875	-568.5090942382812	771.8004760742188	283.095703125	-975.7166748046875	1464.884399414062	258.4845275878906	-1048.758911132812	1404.82373046875	252.0140380859375	-1132.5234375	1129.971923828125	221.1706237792969	-1036.578247070312	1111.01904296875	206.3775939941406	-1131.1875	889.5899658203125	340.241455078125	-1182.558715820312	885.1611938476562	266.7005615234375	-1156.425170898438	1058.193481445312	242.9999084472656	-1119.335083007812	699.5185546875	328.7810668945312	-1145.308349609375	793.4566040039062	355.8764953613281	-1184.9970703125	799.4561157226562	286.2174377441406	-869.5330200195312	1648.5625	225.8865966796875	-679.1572875976562	1688.71484375	320.8479614257812	-796.1488647460938	1704.220947265625	374.4136962890625	-749.3600463867188	1638.999877929688	161.9852905273438	-663.8695068359375	959.18896484375	171.3283996582031	-984.4365234375	975.5496215820312	357.0999145507812	-911.8888549804688	1015.871459960938	419.440673828125	-664.811279296875	993.845947265625	312.2623596191406	-753.4990844726562	470.6958923339844	145.6921691894531	-704.0958862304688	610.4061889648438	163.0897369384766	-861.5031127929688	65.67855834960938	-84.19993591308594	-798.7513427734375	269.0276184082031	33.56864166259766	-902.9376831054688	38.63103103637695	125.1167449951172	-943.8167724609375	42.11381530761719	74.01809692382812	-827.49658203125	36.87067413330078	22.80659866333008	-926.6088256835938	92.57963562011719	-135.5270690917969	-891.7869262695312	526.84326171875	541.033935546875	-944.8738403320312	776.8309326171875	470.5577697753906	-867.8731689453125	34.23459243774414	691.84619140625	-860.2474975585938	420.0036926269531	590.995361328125	-722.7488403320312	139.9535827636719	808.7247924804688	-716.4378051757812	118.7465438842773	742.3114013671875	-823.60205078125	74.79502105712891	785.9744262695312	-855.6559448242188	23.11295127868652	605.4005126953125	
